HIERARCHY
ROOT Pelvis
{
	OFFSET 0.000000 0.000000 0.000000
	CHANNELS 6 Xposition Yposition Zposition Xrotation Yrotation Zrotation
	JOINT LeftUpLeg_virtual
	{
		OFFSET 0.000000 0.000000 0.000000
		CHANNELS 3 Xrotation Yrotation Zrotation
		JOINT LeftUpLeg
		{
			OFFSET 18.735201 -5.666702 -4.541200
			CHANNELS 3 Xrotation Yrotation Zrotation
			JOINT LeftLeg
			{
				OFFSET -0.021200 -31.938179 0.493100
				CHANNELS 3 Xrotation Yrotation Zrotation
				JOINT LeftFoot
				{
					OFFSET 0.021200 -31.938179 -4.336299
					CHANNELS 3 Xrotation Yrotation Zrotation
					JOINT LeftToeBase
					{
						OFFSET 0.943001 -26.722000 15.023500
						CHANNELS 3 Xrotation Yrotation Zrotation
						End Site
						{
							OFFSET 0 0 0
						}
					}
				}
			}
		}
	}
	JOINT RightUpLeg_virtual
	{
		OFFSET 0.000000 0.000000 0.000000
		CHANNELS 3 Xrotation Yrotation Zrotation
		JOINT RightUpLeg
		{
			OFFSET -18.735201 -5.666702 -4.541200
			CHANNELS 3 Xrotation Yrotation Zrotation
			JOINT RightLeg
			{
				OFFSET 0.018946 -31.938133 0.493100
				CHANNELS 3 Xrotation Yrotation Zrotation
				JOINT RightFoot
				{
					OFFSET -0.018946 -31.938126 -4.336299
					CHANNELS 3 Xrotation Yrotation Zrotation
					JOINT RightToeBase
					{
						OFFSET -0.943001 -26.722004 15.023500
						CHANNELS 3 Xrotation Yrotation Zrotation
						End Site
						{
							OFFSET 0 0 0
						}
					}
				}
			}
		}
	}
	JOINT Hips_virtual
	{
		OFFSET 0.000000 0.000000 0.000000
		CHANNELS 3 Xrotation Yrotation Zrotation
		JOINT Hips
		{
			OFFSET -0.000000 -0.000000 -0.000000
			CHANNELS 3 Xrotation Yrotation Zrotation
			JOINT Spine
			{
				OFFSET 0.000000 10.199997 -0.299500
				CHANNELS 3 Xrotation Yrotation Zrotation
				JOINT Spine1
				{
					OFFSET 0.000000 11.900002 -1.516600
					CHANNELS 3 Xrotation Yrotation Zrotation
					JOINT Spine2
					{
						OFFSET 0.000000 13.600006 -2.842500
						CHANNELS 3 Xrotation Yrotation Zrotation
						JOINT Neck_virtual
						{
							OFFSET 0.000000 0.000000 0.000000
							CHANNELS 3 Xrotation Yrotation Zrotation
							JOINT Neck
							{
								OFFSET 0.000000 9.624100 -2.890100
								CHANNELS 3 Xrotation Yrotation Zrotation
								JOINT Head
								{
									OFFSET 0.000000 14.068802 -1.351900
									CHANNELS 3 Xrotation Yrotation Zrotation
									End Site
									{
										OFFSET 0 0 0
									}
								}
							}
						}
						JOINT LeftShoulder_virtual
						{
							OFFSET 0.000000 0.000000 0.000000
							CHANNELS 3 Xrotation Yrotation Zrotation
							JOINT LeftShoulder
							{
								OFFSET 15.263000 10.923401 -0.547700
								CHANNELS 3 Xrotation Yrotation Zrotation
								JOINT LeftArm
								{
									OFFSET 25.438599 -2.830597 -13.032500
									CHANNELS 3 Xrotation Yrotation Zrotation
									JOINT LeftForeArm
									{
										OFFSET 29.960503 0.000000 0.000000
										CHANNELS 3 Xrotation Yrotation Zrotation
										JOINT LeftHand
										{
											OFFSET 27.849251 0.000000 0.000000
											CHANNELS 3 Xrotation Yrotation Zrotation
											End Site
											{
												OFFSET 0 0 0
											}
										}
									}
								}
							}
						}
						JOINT RightShoulder_virtual
						{
							OFFSET 0.000000 0.000000 0.000000
							CHANNELS 3 Xrotation Yrotation Zrotation
							JOINT RightShoulder
							{
								OFFSET -15.263000 10.923401 -0.547700
								CHANNELS 3 Xrotation Yrotation Zrotation
								JOINT RightArm
								{
									OFFSET -25.438599 -2.830597 -13.032500
									CHANNELS 3 Xrotation Yrotation Zrotation
									JOINT RightForeArm
									{
										OFFSET -29.960503 0.000000 0.000000
										CHANNELS 3 Xrotation Yrotation Zrotation
										JOINT RightHand
										{
											OFFSET -27.849251 0.000000 0.000000
											CHANNELS 3 Xrotation Yrotation Zrotation
											End Site
											{
												OFFSET 0 0 0
											}
										}
									}
								}
							}
						}
					}
				}
			}
		}
	}
}
MOTION
Frames: 5
Frame Time: 0.03333333
1.514864 89.787415 12.367788 0.000000 0.000000 0.000000 -4.658298 10.118223 -6.392313 -49.409442 13.274164 12.850132 50.121123 -5.985644 7.020175 -0.828583 -10.098937 1.155312 0.000000 0.000000 0.000000 -5.805578 -30.020594 10.082412 -42.725292 -14.257840 -6.423524 40.535113 7.039749 -11.836312 -10.710516 10.085129 -3.492630 0.000000 0.000000 0.000000 -2.569513 2.209382 0.381355 -22.541532 5.864394 -2.310751 11.221123 -1.183935 0.417422 5.359009 -0.880282 0.142617 0.000000 0.000000 0.000000 13.896421 0.430168 -0.579455 4.077063 0.114291 0.075842 0.000000 0.000000 0.000000 8.381293 1.322177 -0.181547 2.442077 0.665534 -11.185740 19.939482 -30.093397 -43.136217 30.095395 -68.057938 21.339096 0.000000 0.000000 0.000000 9.885769 -0.556873 0.378317 3.180552 -0.816319 7.143500 9.146933 9.329684 50.248554 7.426483 56.735892 0.922004 0.000000 0.000000 0.000000 
1.522243 89.789116 12.358059 0.000000 0.000000 0.000000 -4.665536 10.151880 -6.395860 -49.422962 13.282373 12.849806 50.110806 -5.988528 7.026661 -0.837441 -10.104495 1.163787 0.000000 0.000000 0.000000 -5.806307 -29.975071 10.074917 -42.715201 -14.243227 -6.425466 40.547981 7.035591 -11.831183 -10.698144 10.079734 -3.486868 0.000000 0.000000 0.000000 -2.566124 2.206249 0.382518 -22.538132 5.853680 -2.309151 11.218965 -1.176538 0.413974 5.357762 -0.876414 0.140453 0.000000 0.000000 0.000000 13.899918 0.433697 -0.582181 4.078197 0.115948 0.074646 0.000000 0.000000 0.000000 8.380599 1.327233 -0.184602 2.443617 0.678969 -11.192315 19.934136 -30.092762 -43.117191 30.093014 -68.057084 21.346284 0.000000 0.000000 0.000000 9.885815 -0.552427 0.374313 3.180686 -0.804567 7.133285 9.142129 9.320001 50.250634 7.420328 56.723703 0.926891 0.000000 0.000000 0.000000 
1.528746 89.789749 12.348439 0.000000 0.000000 0.000000 -4.672103 10.183552 -6.399155 -49.435376 13.290121 12.849541 50.100325 -5.991263 7.032506 -0.846173 -10.109622 1.171417 0.000000 0.000000 0.000000 -5.807999 -29.926686 10.066693 -42.705956 -14.227472 -6.427960 40.562967 7.032040 -11.826834 -10.684476 10.075398 -3.481624 0.000000 0.000000 0.000000 -2.562532 2.202590 0.383941 -22.533953 5.844981 -2.306770 11.216393 -1.170328 0.410161 5.356473 -0.873194 0.137984 0.000000 0.000000 0.000000 13.903194 0.436690 -0.584911 4.079205 0.117441 0.073397 0.000000 0.000000 0.000000 8.379875 1.331521 -0.187753 2.445165 0.690569 -11.199144 19.926237 -30.091064 -43.098067 30.083647 -68.053519 21.347198 0.000000 0.000000 0.000000 9.886330 -0.548223 0.371156 3.181595 -0.792788 7.126302 9.140795 9.312615 50.247390 7.417369 56.711074 0.927883 0.000000 0.000000 0.000000 
1.534210 89.789169 12.339247 0.000000 0.000000 0.000000 -4.677967 10.212594 -6.402029 -49.446581 13.297196 12.849459 50.089909 -5.993850 7.037652 -0.854583 -10.114304 1.178103 0.000000 0.000000 0.000000 -5.810839 -29.876665 10.057974 -42.698142 -14.210965 -6.430936 40.580524 7.029539 -11.823574 -10.669298 10.072734 -3.476981 0.000000 0.000000 0.000000 -2.558820 2.198493 0.385580 -22.528996 5.838388 -2.303604 11.213417 -1.165440 0.405931 5.355124 -0.870682 0.135202 0.000000 0.000000 0.000000 13.906203 0.439043 -0.587583 4.080086 0.118714 0.072121 0.000000 0.000000 0.000000 8.379075 1.334975 -0.190938 2.446657 0.700136 -11.206035 19.916068 -30.088766 -43.079028 30.068265 -68.047727 21.342519 0.000000 0.000000 0.000000 9.887149 -0.544405 0.368876 3.183143 -0.781476 7.122502 9.142926 9.307336 50.239105 7.417508 56.698261 0.925164 0.000000 0.000000 0.000000 
1.538527 89.787277 12.330773 0.000000 0.000000 0.000000 -4.683131 10.238513 -6.404338 -49.456519 13.303404 12.849670 50.079773 -5.996294 7.042067 -0.862510 -10.118539 1.183773 0.000000 0.000000 0.000000 -5.814946 -29.826193 10.048981 -42.692248 -14.194085 -6.434325 40.600878 7.028445 -11.821621 -10.652518 10.072199 -3.472996 0.000000 0.000000 0.000000 -2.555095 2.194059 0.387382 -22.523305 5.833843 -2.299683 11.210085 -1.161936 0.401249 5.353711 -0.868899 0.132110 0.000000 0.000000 0.000000 13.908909 0.440695 -0.590129 4.080843 0.119734 0.070853 0.000000 0.000000 0.000000 8.378155 1.337576 -0.194094 2.448033 0.707583 -11.212777 19.903888 -30.086334 -43.060292 30.047935 -68.040173 21.333075 0.000000 0.000000 0.000000 9.888103 -0.541082 0.367488 3.185184 -0.771036 7.121822 9.148413 9.303899 50.226151 7.420554 56.685284 0.919022 0.000000 0.000000 0.000000 
